<svg xmlns="http://www.w3.org/2000/svg" viewBox="0 0 15.36 12.48"><defs><style>.cls-1{fill:#999;fill-rule:evenodd;}</style></defs><title>资源 69</title><g id="图层_2" data-name="图层 2"><g id="图层_1-2" data-name="图层 1"><path class="cls-1" d="M13,0H2.4A2.4,2.4,0,0,0,0,2.4v7.68a2.4,2.4,0,0,0,2.4,2.4H13a2.4,2.4,0,0,0,2.4-2.4V2.4A2.4,2.4,0,0,0,13,0Zm1.2,8.77L11.08,5.68a1.92,1.92,0,0,0-2.72,0L2.8,11.25A1.92,1.92,0,0,1,1.2,9.36V3.12A1.92,1.92,0,0,1,3.12,1.2h9.12a1.92,1.92,0,0,1,1.92,1.92ZM4.08,2.64A1.44,1.44,0,1,0,5.52,4.08,1.44,1.44,0,0,0,4.08,2.64Z"/></g></g></svg>