<svg xmlns="http://www.w3.org/2000/svg" viewBox="0 0 15.36 12.48"><defs><style>.cls-1{fill:#999;fill-rule:evenodd;}</style></defs><title>资源 85</title><g id="图层_2" data-name="图层 2"><g id="图层_1-2" data-name="图层 1"><path class="cls-1" d="M13,1.92h-2.4A1.92,1.92,0,0,0,8.64,0H6.72A1.92,1.92,0,0,0,4.8,1.92H2.4A2.4,2.4,0,0,0,0,4.32v5.76a2.4,2.4,0,0,0,2.4,2.4H13a2.4,2.4,0,0,0,2.4-2.4V4.32A2.4,2.4,0,0,0,13,1.92Zm1.2,7.44a1.92,1.92,0,0,1-1.92,1.92H3.12A1.92,1.92,0,0,1,1.2,9.36V5A1.92,1.92,0,0,1,3.12,3.12h9.12A1.92,1.92,0,0,1,14.16,5Zm-6.48-5A2.88,2.88,0,1,0,10.56,7.2,2.88,2.88,0,0,0,7.68,4.32ZM7,7.44a1,1,0,1,1,1-1A1,1,0,0,1,7,7.44ZM2.52,1.2h1a.6.6,0,0,0,0-1.2h-1a.6.6,0,0,0,0,1.2Z"/></g></g></svg>